# xmcd CD database file
#
# Track frame offsets:
#	150
#	20314
#	31724
#	53825
#	75687
#	96726
#	117573
#	131262
#	163282
#	203995
#	225479
#	242739
#
# Disc length: 3535 seconds
#
# Revision: 0
# Processed by: cddbd v1.5.2PL0 Copyright (c) Steve Scherf et al.
# Submitted via: CDex 1.51
#
DISCID=9b0dcd0c
DTITLE=Mamborama Big Band - Noche De Mambo
DYEAR=2010
DGENRE=Salsa
TTITLE0=Avisale A Mi Contrario
TTITLE1=Almendra
TTITLE2=Fantasia Cubana
TTITLE3=Mambo Gallego
TTITLE4=Asia Mood
TTITLE5=Mambogozon
TTITLE6=Sambia
TTITLE7=Mambo Diablo
TTITLE8=Adonde Vas
TTITLE9=Mambo Sentimental
TTITLE10=Cuando Te Vea
TTITLE11=Mambo Inn
EXTD=YEAR: 2010
EXTT0=
EXTT1=
EXTT2=
EXTT3=
EXTT4=
EXTT5=
EXTT6=
EXTT7=
EXTT8=
EXTT9=
EXTT10=
EXTT11=
PLAYORDER=
